<svg width="71" height="100" viewBox="0 0 71 100" fill="none" xmlns="http://www.w3.org/2000/svg">
<g clip-path="url(#clip0_32_255)">
<path d="M-0.11499 84.1631C0.0628339 84.1526 0.240658 84.1422 0.418482 84.1422C8.66115 84.1422 16.9038 84.1527 25.1465 84.1527C25.6695 84.1527 25.6591 84.1527 25.7009 83.6192C25.8369 82.0711 25.9938 80.5334 26.1402 78.9853C26.2553 77.7301 26.3599 76.4644 26.4854 75.2091C26.6109 73.8179 26.7574 72.4267 26.8829 71.046C27.0189 69.4979 27.1444 67.9497 27.2804 66.4016C27.3955 65.0732 27.5419 63.7447 27.657 62.4058C27.8034 60.8054 27.9289 59.1945 28.0649 57.5941C28.18 56.297 28.316 55 28.431 53.7133C28.5775 52.1129 28.703 50.5021 28.8494 48.9016C28.9645 47.5732 29.1109 46.2447 29.226 44.9163C29.3411 43.6715 29.4457 42.4163 29.5607 41.1715C29.7176 39.4979 29.8745 37.8242 30.0314 36.1401C30.136 34.9686 30.2406 33.7866 30.3452 32.6046C30.4917 30.9205 30.6486 29.2259 30.8055 27.5418C30.9519 25.91 31.0879 24.2887 31.2344 22.6569C31.4331 20.4498 31.6528 18.2322 31.8515 16.0251C31.8724 15.774 32.0189 15.774 32.1862 15.774H39.6444C39.9164 15.774 40.0314 15.8263 40.0628 16.1402C40.2511 18.6506 40.4603 21.1611 40.6486 23.6715C40.7218 24.6548 40.7636 25.6485 40.8369 26.6422C40.9833 28.6924 41.1402 30.7322 41.2971 32.7824C41.4854 35.2929 41.6528 37.8033 41.841 40.3242C41.9561 41.9037 42.1026 43.4937 42.2281 45.0732C42.3431 46.5481 42.4373 48.023 42.5419 49.5083L43.0126 55.7531C43.1172 57.1652 43.2218 58.5878 43.3264 59.9999C43.4729 62.0502 43.6298 64.1004 43.7762 66.1401C43.9226 68.1485 44.0586 70.1673 44.2051 72.1757C44.3201 73.7552 44.4457 75.3451 44.5712 76.9246C44.6235 77.615 44.6549 78.3054 44.7072 78.9958C44.8327 80.6485 44.9687 82.3012 45.1046 83.9539C45.1046 83.9958 45.1256 84.0481 45.1465 84.1422H69.613C70.1569 84.1422 70.1569 84.1422 70.1569 84.6757V86.3388H35.7218C35.7218 85.6589 35.7113 84.9895 35.7323 84.3305C35.7323 84.2573 35.9206 84.1527 36.0252 84.1422C36.4645 84.1213 36.9038 84.1317 37.3641 84.1317L35.9101 64.2259H30.1674L28.4519 84.1422C28.9854 84.1422 29.4457 84.1527 29.9059 84.1422C30.1883 84.1317 30.3139 84.205 30.3034 84.5188C30.2825 85.0209 30.2825 85.5229 30.3034 86.025C30.3139 86.3179 30.2093 86.4121 29.9268 86.3807C29.8222 86.3702 29.7072 86.3807 29.6026 86.3807H0.31388C0.167436 86.3807 0.0314532 86.3912 -0.11499 86.3912V84.1631ZM35.7427 62.0083L33.3055 28.8284H33.2218L30.3557 62.0083H35.7427ZM36.3808 -7.28481e-06C37.0189 0.240578 37.6465 0.470704 38.1486 0.951875C39.0377 1.77823 39.3724 2.80334 39.2155 3.98535C39.0377 5.43932 38.2427 6.43304 36.862 6.93513C36.6737 7.00836 36.5586 7.09204 36.5586 7.3117C36.5586 8.74476 36.5482 10.1778 36.5482 11.6109C36.5482 11.6422 36.5691 11.6736 36.59 11.7573C36.8934 11.569 37.1862 11.3912 37.4687 11.2134C38.4206 10.6276 39.362 10.0314 40.3139 9.44559C40.5649 9.28869 40.68 9.08994 40.68 8.80752C40.6904 8.38911 40.7323 7.9707 40.7636 7.55229C40.8682 6.24476 42.0293 5.23011 43.1904 4.85355C44.4561 4.43514 46.1507 5.19873 46.7992 6.07739C47.6779 7.26986 47.7929 8.75522 47.1026 10.0104C46.5586 10.9937 45.7427 11.5376 44.6444 11.7782C43.6297 11.9874 42.7929 11.6841 42.0189 11.0983C41.726 10.8786 41.4749 10.8682 41.1716 11.0669C39.7176 11.9874 38.2636 12.9079 36.7992 13.818C36.6632 13.9017 36.4749 13.9435 36.3076 13.9644C35.2929 14.1213 34.4561 13.7657 33.6402 13.1799C32.5419 12.4058 31.3808 11.7259 30.2406 11.0146C29.9896 10.8577 29.7595 10.8577 29.5189 11.0669C28.954 11.5376 28.2846 11.8514 27.5628 11.8514C26.1821 11.8305 25.0524 11.2866 24.3724 9.99999C24.0796 9.44559 23.8703 8.85982 23.9122 8.22174C23.9959 6.75731 24.8641 5.43932 26.4227 4.88493C27.9289 4.35145 29.7908 5.28242 30.408 6.53765C30.6067 6.95605 30.6695 7.44769 30.7637 7.90794C30.816 8.19036 30.8264 8.48325 30.8264 8.76568C30.8264 9.11087 30.9729 9.33053 31.2762 9.50835C32.4478 10.2197 33.5984 10.9519 34.7595 11.6736C34.8013 11.6945 34.8431 11.705 34.9373 11.7468C34.9478 11.5899 34.9687 11.4749 34.9687 11.3494C34.9687 10.0523 34.9478 8.74476 34.9478 7.44769C34.9478 7.17572 34.8745 7.02928 34.5921 6.91421C32.9708 6.27614 32.2072 5.03137 32.2595 3.32635C32.2908 1.9456 33.0963 0.836812 34.4247 0.271959C34.6549 0.177817 34.8745 0.0836747 35.1047 -0.0104675H36.3808V-7.28481e-06ZM-0.11499 90.7531C0.449863 90.7531 1.00426 90.774 1.56911 90.7426C2.8871 90.6798 3.30551 91.3388 3.43103 92.4476C3.49379 92.9811 3.46241 93.525 3.44149 94.0585C3.42057 94.5397 3.14861 94.8744 2.64651 95.0522C2.8348 95.1882 3.02308 95.2614 3.11723 95.4079C3.26367 95.6171 3.42057 95.8681 3.43103 96.1087C3.44149 96.8932 3.42057 97.6882 3.32643 98.4623C3.22183 99.2991 2.65697 99.728 1.82015 99.728C1.17162 99.728 0.533545 99.7175 -0.11499 99.7175V90.7531ZM1.2553 98.4309C1.84108 98.5041 1.92476 98.4413 1.93522 97.9183C1.94568 97.4372 1.93522 96.9665 1.92476 96.4853C1.92476 96.297 1.95614 96.0773 1.87246 95.9204C1.79923 95.7844 1.59003 95.7217 1.43313 95.6485C1.40175 95.638 1.26576 95.774 1.2553 95.8367V98.4309ZM1.26576 92.0606C1.26576 92.7824 1.26576 93.4937 1.27622 94.1945C1.27622 94.2468 1.42267 94.3514 1.48543 94.3409C1.73647 94.32 1.89338 94.2049 1.89338 93.9121C1.88292 93.4518 1.89338 92.9811 1.89338 92.5209C1.88292 92.1024 1.80969 92.0397 1.26576 92.0606ZM41.5377 99.9999C40.8369 99.8326 40.6067 99.2677 40.5544 98.6715C40.4603 97.4581 40.4289 96.2447 40.4185 95.0313C40.4185 94.069 40.4708 93.0962 40.544 92.1338C40.5649 91.8514 40.6695 91.5376 40.8264 91.297C40.9624 91.0878 41.2134 90.8891 41.4436 90.8263C41.8306 90.7426 42.249 90.7321 42.6465 90.7635C43.3787 90.8158 43.7657 91.2552 43.8076 92.1547C43.9017 94.1213 43.8808 96.0878 43.8808 98.0543C43.8808 98.4309 43.7657 98.797 43.6716 99.1631C43.567 99.6024 43.2741 99.8744 42.8348 99.9895L41.5377 99.9999ZM42.5419 95.3242V93.0648C42.5419 92.8242 42.5105 92.6045 42.1758 92.6045C41.841 92.6045 41.8201 92.8347 41.8201 93.0648V97.5418C41.8201 97.8137 41.9038 97.9916 42.1967 97.9811C42.4687 97.9706 42.5419 97.7824 42.5419 97.5313V95.3242Z" fill="black"/>
<path d="M70.8264 35.1464H69.498C67.6674 35.1464 65.8474 35.1464 64.0168 35.1569C63.5461 35.1569 63.5461 35.1569 63.5461 34.6966V20.8996C63.5461 19.9372 63.2951 19.0899 62.6151 18.3891C61.6005 17.3431 60.0315 17.1234 58.7344 17.8033C57.4059 18.5042 56.8202 19.6443 56.8202 21.1297V74.4979C56.8202 75.8682 57.3118 76.977 58.4938 77.6883C60.5231 78.9121 63.18 77.8452 63.5147 75.3557C63.5461 75.136 63.5461 74.9059 63.5461 74.6757C63.5461 65.5649 63.5461 56.4435 63.5356 47.3326C63.5356 46.841 63.5356 46.841 63.0545 46.841H60.2721V44.7489H70.7951C70.8055 44.8849 70.816 45.0105 70.816 45.136C70.816 55.4916 70.8055 65.8473 70.8264 76.2134C70.8264 78.0753 69.6444 79.4561 67.9813 79.8117C67.772 79.8536 67.5524 79.864 67.3432 79.864C62.6256 79.864 57.908 79.8536 53.1905 79.8745C51.59 79.8745 49.9164 78.5879 49.7804 76.9247C49.6863 75.7636 49.6758 74.5921 49.6758 73.4205C49.6654 65.8577 49.6758 58.295 49.6758 50.7322C49.6758 41.5481 49.6863 32.3535 49.6967 23.1694C49.6967 21.9247 49.7072 20.6799 49.7177 19.4456C49.7281 18.1171 50.2198 17.0397 51.3599 16.3075C51.9666 15.9205 52.6465 15.7636 53.3578 15.7531C55.816 15.7531 58.2846 15.7531 60.7428 15.7636C62.8557 15.7636 64.9687 15.7636 67.0817 15.774C67.8139 15.774 68.5252 15.8996 69.1633 16.3075C70.3034 17.0397 70.8264 18.0962 70.8264 19.4351V35.1464ZM21.8516 15.774C21.6737 16.5272 21.5168 17.2385 21.3495 17.9393C21.0357 19.2678 20.7219 20.6067 20.3976 21.9351C20.0629 23.3368 19.7281 24.7385 19.4039 26.1402C19.0273 27.7615 18.6612 29.3933 18.2846 31.0146C17.8767 32.751 17.4583 34.4874 17.0503 36.2238C16.6737 37.8556 16.2972 39.4979 15.9206 41.1297C15.5963 42.5418 15.2511 43.954 14.9269 45.3661C14.5608 46.9038 14.2051 48.4519 13.8495 49.9895C13.4206 51.8305 12.9813 53.6715 12.5524 55.5126L11.2658 61.0042L9.97918 66.4958C9.62353 68.0335 9.25742 69.5816 8.90178 71.1193L7.89759 75.387C7.75115 75.9937 7.59424 76.6109 7.43734 77.2594H14.4352V60.4393C14.5921 60.4289 14.7072 60.4184 14.8223 60.4184C17.0189 60.4184 19.2156 60.4289 21.4122 60.4079C21.747 60.4079 21.8306 60.5126 21.8306 60.8368C21.8202 66.9456 21.8202 73.0439 21.8306 79.1527C21.8306 79.477 21.7365 79.5711 21.4122 79.5711C14.6026 79.5607 7.79299 79.5607 0.983369 79.5607C0.868306 79.5607 0.753243 79.5502 0.585879 79.5398C0.61726 78.546 0.481277 77.5732 0.721862 76.6004C1.05659 75.2092 1.3704 73.818 1.70513 72.4268C2.03985 71.0146 2.37458 69.6025 2.69885 68.1904C3.08588 66.5063 3.46245 64.8222 3.84948 63.1485C4.20512 61.6213 4.56077 60.0941 4.91642 58.5565C5.35575 56.6946 5.78462 54.8222 6.22395 52.9602C6.64236 51.1506 7.07123 49.3515 7.5001 47.5418C7.88713 45.8996 8.28462 44.2573 8.67165 42.6151C8.975 41.318 9.26788 40.0209 9.57123 38.7134C9.95826 37.0502 10.3662 35.3766 10.7532 33.7134C11.067 32.3745 11.3495 31.0356 11.6633 29.7071C11.9771 28.3682 12.3118 27.0293 12.6256 25.6799C13.0127 24.0376 13.3788 22.3849 13.7553 20.7322C13.9332 19.9581 14.1319 19.1841 14.3097 18.41C14.3306 18.3054 14.3306 18.2008 14.3516 18.0648C14.1947 18.0544 14.0587 18.0439 13.9332 18.0439C11.9039 18.0439 9.87458 18.0544 7.83483 18.0335C7.48964 18.0335 7.3955 18.1381 7.3955 18.4728C7.40596 23.8598 7.40596 29.2469 7.40596 34.6339V35.0941C7.25952 35.1046 7.13399 35.1151 7.00847 35.1151C4.97918 35.1151 2.9499 35.1046 0.910147 35.1255C0.596339 35.1255 0.502197 35.0523 0.502197 34.728C0.512658 28.5356 0.512658 22.3535 0.502197 16.1611C0.502197 15.8368 0.596339 15.7217 0.931067 15.7217C7.77207 15.7322 14.6235 15.7322 21.4645 15.7322C21.5691 15.7427 21.6737 15.7531 21.8516 15.774ZM70.2616 99.749C69.749 99.749 69.2679 99.7594 68.7971 99.7385C68.7135 99.7385 68.5984 99.5921 68.5775 99.4875C68.4206 98.682 68.2741 97.8766 68.0545 97.0607C67.9394 97.6778 67.8139 98.295 67.6988 98.9017C67.5315 99.7385 67.5315 99.7385 66.6528 99.7385H65.8997C66.0775 98.7971 66.2553 97.9289 66.4227 97.0502C66.5587 96.3285 66.7469 95.6067 66.8202 94.8745C66.862 94.477 66.726 94.0481 66.6423 93.6402C66.4645 92.6988 66.2762 91.7573 66.0775 90.7531C66.6005 90.7531 67.1026 90.7427 67.5942 90.7636C67.657 90.7636 67.7511 90.9519 67.772 91.0565C67.8871 91.7573 67.9917 92.4582 68.1068 93.159L68.2114 93.1695C68.2637 92.9184 68.316 92.6674 68.3578 92.4163C68.4415 91.9352 68.5147 91.454 68.5984 90.9728C68.6193 90.8891 68.703 90.7531 68.7658 90.7531C69.2156 90.7322 69.6654 90.7427 70.1465 90.7427C70.021 91.3703 69.9164 91.9352 69.8013 92.5105C69.6549 93.2322 69.4457 93.954 69.3829 94.6757C69.3411 95.136 69.5085 95.6067 69.6026 96.0774C69.8013 97.1444 70.0105 98.2009 70.2093 99.2678C70.2197 99.4142 70.2302 99.5502 70.2616 99.749ZM54.885 90.7636V97.2071C54.885 97.6569 54.9896 97.8034 55.293 97.772C55.408 97.7615 55.5754 97.636 55.6068 97.5314C55.6695 97.2803 55.6695 97.0084 55.6695 96.7469C55.6695 94.8849 55.68 93.023 55.6695 91.1611C55.6695 90.8473 55.7637 90.7532 56.0775 90.7636C57.0921 90.7741 57.0921 90.7636 57.0921 91.7678C57.0921 93.4728 57.1131 95.1883 57.0817 96.8933C57.0712 97.5314 57.0085 98.1799 56.8725 98.8075C56.7365 99.4665 56.3599 99.7385 55.7951 99.749C55.5336 99.749 55.2721 99.7699 55.0105 99.7699C54.0064 99.7594 53.7553 99.4561 53.5356 98.3055C53.4415 97.8347 53.4624 97.3326 53.4624 96.841C53.452 94.9582 53.4624 93.0649 53.452 91.182C53.452 90.8682 53.5356 90.7531 53.8495 90.7741C54.1737 90.7845 54.5085 90.7636 54.885 90.7636ZM28.0022 94.6653C28.0022 93.4728 28.0126 92.2803 28.0022 91.0774C28.0022 90.8264 28.0754 90.7322 28.3265 90.7531C28.5775 90.7741 28.8285 90.7741 29.0796 90.7531C29.3725 90.7322 29.4562 90.8473 29.4457 91.1193C29.4248 93.2636 29.4143 95.4184 29.3934 97.5732C29.3829 98.1799 29.4143 98.7971 29.0901 99.3515C28.9855 99.5293 28.839 99.7385 28.6612 99.8013C28.0545 100.031 27.3955 100.063 26.8097 99.8222C26.2449 99.5921 26.0461 99.0377 26.0043 98.4519C25.9624 97.9184 25.9624 97.3745 25.9415 96.841C25.9311 96.5272 26.0984 96.3808 26.4018 96.3808C27.3746 96.3703 27.1967 96.318 27.2281 97.1339C27.2386 97.4895 27.2491 97.8452 27.27 98.2113C27.2804 98.4728 27.3432 98.682 27.6884 98.6611C28.0336 98.6402 28.0231 98.4205 28.0231 98.1799C28.0022 97.0084 27.9917 95.8368 28.0022 94.6653ZM14.1319 95.2406C14.1319 93.8703 14.1424 92.5 14.1319 91.1193C14.1319 90.8473 14.2051 90.7218 14.498 90.7427C14.7386 90.7636 14.9792 90.7636 15.2093 90.7427C15.565 90.7008 15.68 90.8368 15.68 91.2029C15.6696 93.6193 15.6696 96.0251 15.6696 98.4414C15.6696 98.7657 15.6591 99.09 15.6696 99.4038C15.68 99.6548 15.5754 99.749 15.3348 99.7281C14.9478 99.6967 14.5608 99.6862 14.1737 99.6653C14.1633 99.2992 14.1424 98.9331 14.1319 98.567V95.2406Z" fill="black"/>
</g>
<defs>
<clipPath id="clip0_32_255">
<rect width="70.8264" height="100" fill="white"/>
</clipPath>
</defs>
</svg>
